<?xml version="1.0" encoding="UTF-8"?>
<svg version="1.1" xmlns="http://www.w3.org/2000/svg" width="750" height="750">
<path d="M0 0 C247.5 0 495 0 750 0 C750 247.5 750 495 750 750 C502.5 750 255 750 0 750 C0 502.5 0 255 0 0 Z " fill="#0C3E63" transform="translate(0,0)"/>
<path d="M0 0 C131.01 0 262.02 0 397 0 C397 31.79069767 397 31.79069767 388 41 C384.05807725 44.34383792 381.11741959 46.05855825 376 47 C376.02094727 47.63574951 376.04189453 48.27149902 376.06347656 48.92651367 C377.43995858 97.83954085 364.61750988 144.79625007 335 184 C334.28972656 184.94359375 333.57945312 185.8871875 332.84765625 186.859375 C328.46136731 192.49248227 323.67290727 197.72683648 318.80859375 202.9453125 C317.39335173 204.46495265 316.00665031 205.99213177 314.6660614 207.57823181 C309.30525768 213.9153695 303.39297597 219.67726096 297.48615646 225.49731255 C295.54837113 227.40813746 293.6152629 229.32357935 291.6835022 231.24049377 C286.1962637 236.68529404 280.70632215 242.12727191 275.20019531 247.55297852 C271.81824069 250.88620457 268.44630846 254.22929345 265.08055496 257.57887459 C263.80447875 258.84511114 262.52477024 260.10769887 261.2412529 261.36639214 C250.08381861 271.84281255 250.08381861 271.84281255 244.37109375 285.66015625 C244.39300781 286.78292969 244.41492188 287.90570313 244.4375 289.0625 C244.43556641 290.75052734 244.43556641 290.75052734 244.43359375 292.47265625 C245.6374101 299.96952633 249.60812401 305.20249255 254.94262695 310.38085938 C255.81908875 311.25578789 255.81908875 311.25578789 256.71325684 312.14839172 C258.62906286 314.05637421 260.5585182 315.94989437 262.48828125 317.84375 C263.83437969 319.17982997 265.17951286 320.51688309 266.52372742 321.8548584 C270.05518014 325.36544638 273.59803204 328.86429167 277.1439209 332.36029053 C282.81052655 337.95145839 288.45858768 343.56137319 294.10851097 349.16938782 C296.07225222 351.11558748 298.04023795 353.05740524 300.0091095 354.99841309 C310.82621976 365.68614752 310.82621976 365.68614752 315.72120667 371.50514221 C317.54552936 373.63770181 319.57628847 375.52271484 321.625 377.4375 C332.13855224 387.85489171 340.63681745 400.21290932 348 413 C348.75709708 414.26605309 349.51494333 415.53165841 350.2734375 416.796875 C355.64201998 425.88825409 359.5477479 435.04077575 363 445 C363.49893758 446.30429238 364.00029987 447.60765944 364.50390625 448.91015625 C366.11672604 453.18578712 367.36336012 457.53056636 368.5625 461.9375 C368.87477539 463.05801758 368.87477539 463.05801758 369.19335938 464.20117188 C375.96547187 488.80580629 376.61891052 513.64807487 377 539 C379.31 539.66 381.62 540.32 384 541 C384 541.66 384 542.32 384 543 C384.70125 543.165 385.4025 543.33 386.125 543.5 C392.40488525 546.77646187 394.8369768 552.5109304 397 559 C397 567.58 397 576.16 397 585 C265.66 585 134.32 585 -1 585 C-1 555.43319838 -1 555.43319838 4.9296875 547.37890625 C13.90322581 539 13.90322581 539 21 539 C20.97905273 537.98502441 20.95810547 536.97004883 20.93652344 535.92431641 C20.54714914 515.19121298 20.78783715 495.39514207 25 475 C25.14953125 474.21512207 25.2990625 473.43024414 25.453125 472.62158203 C32.75132254 434.36517388 53.65799517 401.91837678 80 374 C80.72574219 373.22527344 81.45148438 372.45054687 82.19921875 371.65234375 C84 370 84 370 86 370 C86.11616138 380.01437523 86.20485056 390.02858857 86.25906086 400.04350185 C86.28508727 404.69452758 86.32035704 409.3450903 86.37719727 413.99584961 C86.4317668 418.48924839 86.46147279 422.98220355 86.47438622 427.47590828 C86.48358157 429.185059 86.50153784 430.8941871 86.52865028 432.60314751 C86.67004952 441.89035038 86.64387676 449.20327218 81 457 C80.08050042 459.24517377 79.21941763 461.51578723 78.4375 463.8125 C78.02628906 465.01777344 77.61507812 466.22304688 77.19140625 467.46484375 C76.79824219 468.63144531 76.40507812 469.79804688 76 471 C75.63777344 471.99128906 75.27554688 472.98257812 74.90234375 474.00390625 C67.62899775 494.33055762 67.76661748 515.53471057 67 537 C153.46 537 239.92 537 329 537 C327.3695537 488.08661115 320.13385583 446.55448064 285 411 C284.52965332 410.52127441 284.05930664 410.04254883 283.57470703 409.54931641 C280.74231134 406.6729301 277.87676194 403.83189043 275 401 C271.40069467 397.45222043 267.95019082 393.794 264.54931641 390.05761719 C257.95892102 382.87293079 251.11039803 375.96452647 244.2109375 369.078125 C242.93235994 367.79887165 241.65393068 366.51947008 240.37564087 365.2399292 C237.72681537 362.58964555 235.07623024 359.94113861 232.42431641 357.29394531 C229.02249487 353.89788469 225.62527032 350.49726603 222.22929955 347.09535599 C219.60437014 344.46682434 216.97707802 341.84066477 214.34904861 339.21523285 C213.09396584 337.96081698 211.83962499 336.70565834 210.5860405 335.44974518 C208.84670934 333.7078862 207.10422636 331.96924405 205.36083984 330.23144531 C204.8445401 329.71312134 204.32824036 329.19479736 203.79629517 328.6607666 C201.14925613 325.99709907 201.14925613 325.99709907 198 324 C197.74372613 324.58117458 197.48745226 325.16234917 197.22341251 325.7611351 C195.88144371 328.21695995 194.40341086 329.84549586 192.42539978 331.82183838 C191.68365005 332.56778259 190.94190033 333.31372681 190.17767334 334.08227539 C189.36356995 334.89075928 188.54946655 335.69924316 187.71069336 336.53222656 C186.85369339 337.39112488 185.99669342 338.25002319 185.11372375 339.13494873 C182.76627053 341.48547031 180.41443911 343.83143751 178.06038356 346.17533588 C175.5991891 348.62774243 173.14327254 351.08542395 170.68666077 353.54241943 C166.56330822 357.66483606 162.43610373 361.7833639 158.30639648 365.89941406 C153.52581491 370.66424485 148.75050569 375.43430769 143.97815984 380.20738626 C139.39087925 384.79527612 134.80075334 389.38030751 130.2090168 393.96373749 C128.25250398 395.91671184 126.29684993 397.87054032 124.34184074 399.82501984 C121.61753014 402.54814397 118.8889831 405.26699781 116.15991211 407.98535156 C115.34378448 408.80193237 114.52765686 409.61851318 113.6867981 410.45983887 C112.94786819 411.19450378 112.20893829 411.9291687 111.44761658 412.68609619 C110.47948233 413.65171667 110.47948233 413.65171667 109.49178982 414.63684464 C108 416 108 416 107 416 C107 311.72 107 207.44 107 100 C116.9 100 126.8 100 137 100 C137 100.66 137 101.32 137 102 C137.7321875 102.11085938 138.464375 102.22171875 139.21875 102.3359375 C145.85191048 103.91969773 151.18058164 108.49481031 155.02734375 113.99609375 C158.03811646 120.19901103 158.24238894 125.86780596 158.06494141 132.62866211 C158.03250788 134.57803292 158.00043003 136.52740967 157.96865845 138.47679138 C157.94851307 139.50265287 157.92836769 140.52851437 157.90761185 141.58546257 C157.81139053 147.06504496 157.78599608 152.54513963 157.75 158.02539062 C157.70240115 164.97838622 157.63374061 171.92867149 157.47558594 178.88012695 C157.34921932 184.51716974 157.3027398 190.15011838 157.30765915 195.78851509 C157.29540915 197.921998 157.25496595 200.05553363 157.18425369 202.18787956 C156.68879465 215.36486273 156.68879465 215.36486273 162.50164795 226.77127075 C165.81293103 230.26604303 169.38625263 233.35900344 173.12668991 236.38286018 C174.90729453 237.91997176 176.35250725 239.48029692 177.8253479 241.30870056 C179.89785149 244.147522 179.89785149 244.147522 183 246 C181.43904931 249.73806611 179.12570854 252.13242541 176.28125 254.984375 C175.34925781 255.91894531 174.41726563 256.85351562 173.45703125 257.81640625 C172.97186035 258.2973877 172.48668945 258.77836914 171.98681641 259.27392578 C170.49793661 260.75204848 169.02008349 262.24059911 167.54296875 263.73046875 C166.61097656 264.65988281 165.67898438 265.58929688 164.71875 266.546875 C163.86216797 267.40120117 163.00558594 268.25552734 162.12304688 269.13574219 C160 271 160 271 158 271 C158 279.25 158 287.5 158 296 C158.99 296 159.98 296 161 296 C161.06460482 295.44741957 161.12920963 294.89483913 161.19577217 294.32551384 C162.34652095 290.99799629 164.3736779 289.26771292 166.86764526 286.79177856 C167.63520179 286.02355217 167.63520179 286.02355217 168.41826451 285.23980606 C170.13754233 283.52261425 171.86730697 281.81638844 173.59716797 280.10986328 C174.83134809 278.88144037 176.06484715 277.65233286 177.29771423 276.42259216 C179.95735414 273.77244589 182.62158777 271.12703595 185.28939438 268.48511124 C189.51813614 264.29696075 193.73539203 260.09737186 197.95095825 255.89596558 C207.67575527 246.20732291 217.41534328 236.53359309 227.15535736 226.86025238 C236.05598132 218.02033464 244.95334321 209.17719876 253.83851159 200.32174289 C258.01768123 196.15741202 262.20402994 192.00048437 266.39625049 187.84929395 C269.02269906 185.245463 271.64270215 182.63521588 274.26112556 180.02331734 C275.4632401 178.82674954 276.66790895 177.63274057 277.87552071 176.44172096 C314.94191193 139.86799743 327.09487675 99.4383277 329 48 C242.54 48 156.08 48 67 48 C68.93289165 80.45996354 68.93289165 80.45996354 75.75 111.5 C75.96551514 112.24636719 76.18103027 112.99273437 76.40307617 113.76171875 C77.90036875 118.57292918 79.8891212 122.42466547 82.57543945 126.69213867 C87.09016741 135.02564434 86.89838662 142.60167894 86.68359375 151.89453125 C86.67050441 153.5798688 86.66055605 155.26523336 86.65357971 156.9506073 C86.62711541 161.34229773 86.5585886 165.73231385 86.48065186 170.12335205 C86.40846809 174.62171795 86.37695169 179.12035994 86.34179688 183.61914062 C86.26718903 192.4135206 86.1480482 201.20655084 86 210 C62.81525069 199.23052669 42.35087819 157.80911504 34 135 C33.68933594 134.30261719 33.37867188 133.60523438 33.05859375 132.88671875 C23.22455978 110.55767692 20.78912005 84.83234538 20.9375 60.75 C20.94253077 59.31119949 20.94709086 57.87239726 20.95117188 56.43359375 C20.96203936 52.95569249 20.97921472 49.47785783 21 46 C20.23300781 45.855625 19.46601563 45.71125 18.67578125 45.5625 C11.09072539 43.96797731 6.36964974 39.17065402 2 33 C0 27 0 27 0 0 Z " fill="#F1F2F2" transform="translate(177,14)"/>
<path d="M0 0 C1.52657227 0.05414062 1.52657227 0.05414062 3.08398438 0.109375 C5.58078272 0.20315146 8.06962488 0.33416975 10.5625 0.5 C8.72656246 4.4444712 6.1586017 7.3067528 3.1875 10.4375 C2.66309326 11.00017578 2.13868652 11.56285156 1.59838867 12.14257812 C-1.19803218 15.14073393 -4.0218008 18.11097356 -6.86328125 21.06640625 C-7.41000488 21.64205322 -7.95672852 22.2177002 -8.52001953 22.81079102 C-9.56857995 23.91437933 -10.62526163 25.01032302 -11.69091797 26.09741211 C-13.70634482 28.22684909 -15.31584092 30.24719655 -16.58984375 32.89453125 C-16.34046808 37.15949458 -13.83686566 39.8596828 -11.3125 43.1875 C-10.77496094 43.92137939 -10.23742187 44.65525879 -9.68359375 45.41137695 C-8.5381684 46.97393685 -7.38660314 48.53201121 -6.22949219 50.0859375 C-3.83482441 53.31188778 -1.48554598 56.56958849 0.86279297 59.8293457 C1.97076242 61.36652998 3.08162867 62.90163171 4.19580078 64.43432617 C12.5625 75.95398037 12.5625 75.95398037 12.5625 78.5 C-6.70322857 81.18355352 -6.70322857 81.18355352 -12.4453125 77.05712891 C-15.8763215 73.13198002 -18.05502862 68.51523382 -20.26367188 63.82714844 C-22.13607681 60.11505113 -24.53908286 56.83921683 -27 53.5 C-27.41870361 52.90751465 -27.83740723 52.3150293 -28.26879883 51.70458984 C-30.40526522 48.61123347 -30.40526522 48.61123347 -33.4375 46.5 C-33.64375 47.03625 -33.85 47.5725 -34.0625 48.125 C-35.4375 50.5 -35.4375 50.5 -38.46875 52.96875 C-42.03514336 56.47507779 -42.18548932 59.63855311 -42.3203125 64.4921875 C-42.31644531 65.91917969 -42.31644531 65.91917969 -42.3125 67.375 C-42.333125 68.34953125 -42.35375 69.3240625 -42.375 70.328125 C-42.42186777 72.71838133 -42.43323848 75.10928802 -42.4375 77.5 C-48.3775 77.5 -54.3175 77.5 -60.4375 77.5 C-60.4375 52.42 -60.4375 27.34 -60.4375 1.5 C-54.4975 1.5 -48.5575 1.5 -42.4375 1.5 C-42.4375 12.39 -42.4375 23.28 -42.4375 34.5 C-41.7775 34.5 -41.1175 34.5 -40.4375 34.5 C-40.16510498 33.90541992 -39.89270996 33.31083984 -39.61206055 32.69824219 C-38.46720512 30.55559444 -37.31105302 29.07993363 -35.64453125 27.328125 C-35.10006348 26.7501416 -34.5555957 26.1721582 -33.99462891 25.57666016 C-33.41890137 24.9738623 -32.84317383 24.37106445 -32.25 23.75 C-31.06558674 22.49295916 -29.88198593 21.23515228 -28.69921875 19.9765625 C-28.13251465 19.37489258 -27.56581055 18.77322266 -26.98193359 18.15332031 C-25.13601702 16.17726166 -23.33794738 14.16452995 -21.5625 12.125 C-21.07313965 11.57295898 -20.5837793 11.02091797 -20.07958984 10.45214844 C-18.40671717 8.52742828 -18.40671717 8.52742828 -17.00317383 6.41357422 C-12.11182155 -0.25806654 -7.94967904 -0.53790932 0 0 Z " fill="#F9FAFA" transform="translate(241.4375,659.5)"/>
<path d="M0 0 C0.93005859 0.61875 0.93005859 0.61875 1.87890625 1.25 C7.69270393 5.66999305 11.70403664 12.11210993 14 19 C14.95456311 29.14027696 13.33756317 38.14649562 7 46.3125 C1.53607128 52.08525947 -7.26186411 56.6496651 -15.22265625 57.23828125 C-25.74517245 57.44166661 -34.39601272 56.24716834 -42.3984375 48.8515625 C-48.40504093 41.90734293 -51.20400817 35.41598564 -51.3125 26.375 C-51.34150391 25.59253906 -51.37050781 24.81007813 -51.40039062 24.00390625 C-51.49080869 15.61589186 -48.13305666 9.6378725 -42.55859375 3.53515625 C-32.6511615 -6.22329205 -11.56699858 -7.82545358 0 0 Z " fill="#F7F8F8" transform="translate(355,682)"/>
<path d="M0 0 C5.95347983 4.73197103 10.43563671 10.9069246 11.86328125 18.4921875 C12.70670402 28.79167713 10.91805141 36.66086947 4.41796875 44.76171875 C2.41687332 46.98906869 0.35507669 48.83099054 -2.13671875 50.4921875 C-2.79671875 50.4921875 -3.45671875 50.4921875 -4.13671875 50.4921875 C-4.46671875 51.4821875 -4.79671875 52.4721875 -5.13671875 53.4921875 C-12.00492923 57.53391772 -22.50044786 56.35352551 -30.13671875 55.4921875 C-39.29519456 53.03574309 -45.2764377 47.49520667 -50.13671875 39.4921875 C-54.19138723 31.67148795 -54.39329987 22.3151461 -52.19921875 13.8671875 C-49.42473865 6.59247412 -43.08282399 -0.08480386 -36.13671875 -3.5078125 C-23.89413489 -7.27281765 -10.68970048 -7.54337182 0 0 Z " fill="#F7F8F8" transform="translate(501.13671875,683.5078125)"/>
<path d="M0 0 C1.04027344 -0.00257813 2.08054687 -0.00515625 3.15234375 -0.0078125 C5.63915971 0.10567977 7.69342407 0.40571429 10.0625 1.125 C10.0625 1.785 10.0625 2.445 10.0625 3.125 C10.805 3.351875 11.5475 3.57875 12.3125 3.8125 C16.44659441 5.78559051 18.34898757 8.49198996 20.16357422 12.64501953 C21.37434218 17.3322239 21.31000228 21.73464279 21.2578125 26.5546875 C21.2549826 27.54501984 21.25215271 28.53535217 21.24923706 29.55569458 C21.2380847 32.70392176 21.21298907 35.85185949 21.1875 39 C21.17746382 41.14062088 21.16833908 43.28124624 21.16015625 45.421875 C21.13816153 50.65636072 21.10366563 55.89063136 21.0625 61.125 C14.7925 61.125 8.5225 61.125 2.0625 61.125 C2.02511719 58.42828125 1.98773438 55.7315625 1.94921875 52.953125 C1.90299404 50.33845962 1.85176388 47.72393687 1.80004883 45.109375 C1.76681564 43.29370811 1.73877866 41.47793832 1.71606445 39.66210938 C1.68248859 37.05033558 1.63017238 34.43950346 1.57421875 31.828125 C1.56782883 31.01756653 1.5614389 30.20700806 1.55485535 29.37188721 C1.44028179 24.97000101 1.08910846 22.38465681 -1.9375 19.125 C-1.9375 18.465 -1.9375 17.805 -1.9375 17.125 C-3.52187117 17.18547218 -5.10517058 17.27438946 -6.6875 17.375 C-7.56921875 17.42140625 -8.4509375 17.4678125 -9.359375 17.515625 C-12.80297164 18.32956602 -13.81635367 19.27767558 -15.9375 22.125 C-16.55094482 25.09316571 -16.54241279 28.02361697 -16.546875 31.046875 C-16.56341125 31.90686096 -16.57994751 32.76684692 -16.59698486 33.65289307 C-16.64548368 36.39366788 -16.66683956 39.1338878 -16.6875 41.875 C-16.71565817 43.73570503 -16.74558539 45.59638419 -16.77734375 47.45703125 C-16.85456825 52.0132765 -16.89506766 56.56776681 -16.9375 61.125 C-23.2075 61.125 -29.4775 61.125 -35.9375 61.125 C-35.9375 41.325 -35.9375 21.525 -35.9375 1.125 C-29.9975 1.125 -24.0575 1.125 -17.9375 1.125 C-17.9375 3.765 -17.9375 6.405 -17.9375 9.125 C-17.2775 9.125 -16.6175 9.125 -15.9375 9.125 C-15.710625 8.5475 -15.48375 7.97 -15.25 7.375 C-11.67387672 1.24450295 -6.66353592 -0.01647351 0 0 Z " fill="#F5F7F7" transform="translate(415.9375,676.875)"/>
<path d="M0 0 C2.87890625 2.109375 2.87890625 2.109375 5 4 C3.43358249 8.30764815 1.31663844 12.06171464 -1 16 C-2.4589426 15.52269162 -3.91713496 15.04308958 -5.375 14.5625 C-6.18710937 14.29566406 -6.99921875 14.02882813 -7.8359375 13.75390625 C-10 13 -10 13 -12 12 C-13.87379605 11.92966231 -15.75001102 11.9156978 -17.625 11.9375 C-19.12933594 11.95103516 -19.12933594 11.95103516 -20.6640625 11.96484375 C-21.82035156 11.98224609 -21.82035156 11.98224609 -23 12 C-23 13.65 -23 15.3 -23 17 C-19.09196765 19.27968554 -15.56022969 20.36931191 -11.125 21.3125 C-4.38691593 22.90285525 -0.01082036 25.80100336 4.6875 30.79296875 C7.38160575 35.32323587 6.57402554 40.92208178 6 46 C4.74666246 49.47720826 2.93317427 51.42972683 -0.25 53.375 C-0.8275 53.58125 -1.405 53.7875 -2 54 C-2 54.66 -2 55.32 -2 56 C-11.61105935 60.04676183 -22.15911926 60.72782275 -32 57 C-33.32911682 56.65023242 -34.66082739 56.30903983 -36 56 C-36 55.34 -36 54.68 -36 54 C-37.1446875 53.814375 -37.1446875 53.814375 -38.3125 53.625 C-41 53 -41 53 -44 51 C-42.61735163 48.13132769 -41.07851447 45.43975968 -39.375 42.75 C-38.92898438 42.04359375 -38.48296875 41.3371875 -38.0234375 40.609375 C-37.68570313 40.07828125 -37.34796875 39.5471875 -37 39 C-34.38137731 39.58567045 -32.49438392 40.25818693 -30.0625 41.5 C-25.4073087 43.7800937 -21.33140963 44.12447481 -16.1875 44.0625 C-15.21167969 44.05347656 -14.23585938 44.04445313 -13.23046875 44.03515625 C-12.49441406 44.02355469 -11.75835938 44.01195312 -11 44 C-11.15820897 41.00689577 -11.15820897 41.00689577 -13 38 C-16.54640936 36.51881714 -20.25471533 35.82213566 -24 35 C-30.58097425 33.15550549 -36.42669242 30.08298137 -40.171875 24.140625 C-41.99501707 19.42797474 -41.87981493 13.68443532 -40.3125 8.90234375 C-37.56398254 3.69161274 -33.59074414 0.29537207 -28.375 -2.3125 C-18.94559239 -4.23330525 -9.04199445 -3.25269062 0 0 Z " fill="#F4F6F7" transform="translate(563,680)"/>
<path d="M0 0 C0 6.6 0 13.2 0 20 C-1.876875 20.20625 -3.75375 20.4125 -5.6875 20.625 C-11.06368328 21.47565752 -11.06368328 21.47565752 -15.125 24.8125 C-18.06854061 29.81651904 -19.24845917 33.57081404 -19.4140625 39.39453125 C-19.45273437 40.59658203 -19.49140625 41.79863281 -19.53125 43.03710938 C-19.5621875 44.28298828 -19.593125 45.52886719 -19.625 46.8125 C-19.66367187 48.07771484 -19.70234375 49.34292969 -19.7421875 50.64648438 C-19.8363038 53.76408675 -19.91923441 56.8820232 -20 60 C-25.94 60 -31.88 60 -38 60 C-38 40.86 -38 21.72 -38 2 C-31.73 2 -25.46 2 -19 2 C-18.67 4.64 -18.34 7.28 -18 10 C-17.54109375 9.44570313 -17.0821875 8.89140625 -16.609375 8.3203125 C-15.99578125 7.59585938 -15.3821875 6.87140625 -14.75 6.125 C-14.14671875 5.40570312 -13.5434375 4.68640625 -12.921875 3.9453125 C-8.58018882 -0.44932107 -6.62979957 0 0 0 Z " fill="#F8FAFA" transform="translate(299,677)"/>
<path d="M0 0 C8.58 0 17.16 0 26 0 C26 8.58 26 17.16 26 26 C17.42 26 8.84 26 0 26 C0 17.42 0 8.84 0 0 Z " fill="#DFE1E2" transform="translate(429,508)"/>
<path d="M0 0 C8.58 0 17.16 0 26 0 C26 8.58 26 17.16 26 26 C17.42 26 8.84 26 0 26 C0 17.42 0 8.84 0 0 Z " fill="#DDDFE0" transform="translate(363,508)"/>
<path d="M0 0 C8.58 0 17.16 0 26 0 C26 8.58 26 17.16 26 26 C17.42 26 8.84 26 0 26 C0 17.42 0 8.84 0 0 Z " fill="#E1E3E4" transform="translate(327,508)"/>
<path d="M0 0 C8.58 0 17.16 0 26 0 C26 8.58 26 17.16 26 26 C17.42 26 8.84 26 0 26 C0 17.42 0 8.84 0 0 Z " fill="#DEE0E2" transform="translate(291,508)"/>
<path d="M0 0 C3.74435553 2.064196 6.19528121 4.70545238 8.4375 8.3125 C9.58050411 13.77351962 9.87043481 18.22565211 7.375 23.3125 C4.36044127 26.7237112 1.65876337 29.53510817 -2.98828125 30.34765625 C-7.52693552 30.54424579 -10.57543884 29.96178262 -14 27 C-17.9218627 22.3847693 -19.80001806 18.20827756 -19.421875 12.10546875 C-18.52554547 7.63212046 -15.82329557 4.92015388 -12.875 1.625 C-8.59253016 -0.79552643 -4.7971755 -0.99380739 0 0 Z " fill="#0F3958" transform="translate(341,693)"/>
<path d="M0 0 C3.72381459 2.04231148 6.16760637 4.69712302 8.4375 8.25 C9.61651846 14.01409022 9.92253426 19.04848522 7.375 24.4375 C3.5519091 28.56241387 0.06202376 30.14477831 -5.5 30.5 C-8.81617547 30.38256377 -10.80683615 29.85142528 -13.4375 27.8125 C-17.99833175 22.80670905 -18.44414018 18.23186815 -18.3203125 11.66015625 C-17.76460602 7.04508172 -15.55618631 4.37116204 -12.16015625 1.37890625 C-8.32078316 -1.07190514 -4.37823426 -0.83394938 0 0 Z " fill="#103958" transform="translate(485,693)"/>
<path d="M0 0 C8.25 0 16.5 0 25 0 C25 8.58 25 17.16 25 26 C16.75 26 8.5 26 0 26 C0 17.42 0 8.84 0 0 Z " fill="#E2E4E4" transform="translate(397,474)"/>
<path d="M0 0 C8.58 0 17.16 0 26 0 C26 8.25 26 16.5 26 25 C17.42 25 8.84 25 0 25 C0 16.75 0 8.5 0 0 Z " fill="#E5E7E7" transform="translate(327,456)"/>
<path d="M0 0 C8.58 0 17.16 0 26 0 C26 8.25 26 16.5 26 25 C17.42 25 8.84 25 0 25 C0 16.75 0 8.5 0 0 Z " fill="#E2E5E5" transform="translate(363,441)"/>
<path d="M0 0 C7.26 0 14.52 0 22 0 C22 7.26 22 14.52 22 22 C14.74 22 7.48 22 0 22 C0 14.74 0 7.48 0 0 Z " fill="#E3E6E7" transform="translate(365,398)"/>
<path d="M0 0 C6.93 0 13.86 0 21 0 C21 6.6 21 13.2 21 20 C14.07 20 7.14 20 0 20 C0 13.4 0 6.8 0 0 Z " fill="#DFE3E5" transform="translate(365,363)"/>
<path d="M0 0 C5.94 0 11.88 0 18 0 C18 6.27 18 12.54 18 19 C12.06 19 6.12 19 0 19 C0 12.73 0 6.46 0 0 Z " fill="#E1E6EA" transform="translate(388,198)"/>
<path d="M0 0 C5.94 0 11.88 0 18 0 C18 5.94 18 11.88 18 18 C12.06 18 6.12 18 0 18 C0 12.06 0 6.12 0 0 Z " fill="#EDEFF1" transform="translate(366,221)"/>
<path d="M0 0 C5.94 0 11.88 0 18 0 C18 5.94 18 11.88 18 18 C12.06 18 6.12 18 0 18 C0 12.06 0 6.12 0 0 Z " fill="#EAEEEF" transform="translate(409,176)"/>
<path d="M0 0 C5.94 0 11.88 0 18 0 C18 5.94 18 11.88 18 18 C12.06 18 6.12 18 0 18 C0 12.06 0 6.12 0 0 Z " fill="#ECF0F1" transform="translate(366,176)"/>
<path d="M0 0 C4.62 0 9.24 0 14 0 C14 4.29 14 8.58 14 13 C9.38 13 4.76 13 0 13 C0 8.71 0 4.42 0 0 Z " fill="#E9EEF0" transform="translate(346,177)"/>
<path d="M0 0 C0.99 0.33 1.98 0.66 3 1 C-2.28 6.28 -7.56 11.56 -13 17 C-13.99 16.67 -14.98 16.34 -16 16 C-10.72 10.72 -5.44 5.44 0 0 Z " fill="#28455A" transform="translate(319,395)"/>
<path d="M0 0 C1.52657227 0.05414062 1.52657227 0.05414062 3.08398438 0.109375 C5.58078272 0.20315146 8.06962488 0.33416975 10.5625 0.5 C10.2325 1.16 9.9025 1.82 9.5625 2.5 C8.27214844 2.41878906 6.98179687 2.33757813 5.65234375 2.25390625 C-3.61216509 1.51722356 -3.61216509 1.51722356 -12.2578125 4.05859375 C-13.92655388 5.79366585 -15.25706503 7.40619679 -16.4375 9.5 C-17.0975 9.17 -17.7575 8.84 -18.4375 8.5 C-13.29207698 0.60553043 -9.18310585 -0.62136826 0 0 Z " fill="#AEBCC7" transform="translate(241.4375,659.5)"/>
<path d="M0 0 C-1.06457398 2.48400595 -1.92699187 3.93725864 -4 5.71875 C-6.59890956 8.68313122 -6.78441493 10.87012445 -7.25 14.75 C-7.39953125 15.92046875 -7.5490625 17.0909375 -7.703125 18.296875 C-7.80109375 19.18890625 -7.8990625 20.0809375 -8 21 C-8.33 21 -8.66 21 -9 21 C-9.55382727 12.49259784 -8.94074962 7.69858608 -3.375 1.0625 C-2 0 -2 0 0 0 Z " fill="#C3CED4" transform="translate(531,681)"/>
<path d="M0 0 C0.66 0 1.32 0 2 0 C0.46356148 3.68069887 -1.78150945 5.98775204 -4.625 8.75 C-5.85089844 9.94882812 -5.85089844 9.94882812 -7.1015625 11.171875 C-7.72804688 11.77515625 -8.35453125 12.3784375 -9 13 C-9 9.26130751 -8.09514308 8.63449295 -5.625 5.9375 C-4.99851562 5.24527344 -4.37203125 4.55304687 -3.7265625 3.83984375 C-2.50602933 2.53923035 -1.26120903 1.26120903 0 0 Z " fill="#D1DBDF" transform="translate(461,682)"/>
<path d="M0 0 C0.99 0.33 1.98 0.66 3 1 C0.69 3.31 -1.62 5.62 -4 8 C-4.66 7.67 -5.32 7.34 -6 7 C-4.02 4.69 -2.04 2.38 0 0 Z " fill="#D3DAE0" transform="translate(229,661)"/>
</svg>
